<?xml version="1.0" standalone="no"?><!DOCTYPE svg PUBLIC "-//W3C//DTD SVG 1.1//EN" "http://www.w3.org/Graphics/SVG/1.1/DTD/svg11.dtd"><svg t="1726962502283" class="icon" viewBox="0 0 1024 1024" version="1.1" xmlns="http://www.w3.org/2000/svg" p-id="4216" xmlns:xlink="http://www.w3.org/1999/xlink" width="200" height="200"><path d="M895.36 195.84h-262.4c-21.12 0-39.04-17.28-39.04-39.04v-28.16C593.92 57.6 536.32 0 465.28 0H128.64C57.6 0 0 57.6 0 128.64v641.92c0 71.04 57.6 128.64 128.64 128.64h289.216v-89.6H128.64c-21.12 0-39.04-17.28-39.04-39.04V128.64c0-21.76 17.92-39.04 39.04-39.04h336.64c21.12 0 39.04 17.28 39.04 39.04v28.16c0 70.4 56.96 128 127.36 128.64 0.64-0.64 0.64-0.64 1.28 0h262.4c21.12 0 39.04 17.28 39.04 39.04V499.2H1024V324.48c0-71.04-57.6-128.64-128.64-128.64z" fill="#454859" p-id="4217"></path><path d="M980.096 724.16h-168.192v-168.32a43.712 43.712 0 0 0-74.944-31.04 43.2 43.2 0 0 0-12.8 31.104v168.256H555.904a43.904 43.904 0 1 0-0.064 87.744h168.32v168.192c0 24.64 19.264 43.904 43.904 43.904 11.904 0 22.976-4.48 31.168-12.672a43.84 43.84 0 0 0 12.672-31.232v-168.128h168.128c11.968 0 23.04-4.544 31.232-12.672a43.712 43.712 0 0 0 12.736-31.232 43.392 43.392 0 0 0-43.904-43.904z" fill="#454859" p-id="4218"></path></svg>