<?xml version="1.0" standalone="no"?><!DOCTYPE svg PUBLIC "-//W3C//DTD SVG 1.1//EN" "http://www.w3.org/Graphics/SVG/1.1/DTD/svg11.dtd"><svg t="1726540979132" class="icon" viewBox="0 0 1024 1024" version="1.1" xmlns="http://www.w3.org/2000/svg" p-id="5407" xmlns:xlink="http://www.w3.org/1999/xlink" width="200" height="200"><path d="M783 312.5v510c0 16.6-13.4 30-30 30H273c-16.6 0-30-13.4-30-30v-510h540m60-60H183v600c0 33.1 26.9 60 60 60h540c33.1 0 60-26.9 60-60v-600z" fill="" p-id="5408"></path><path d="M333 251v-78h360v78H333m-60 60h420c33.1 0 60-26.9 60-60v-78c0-33.1-26.9-60-60-60H333c-33.1 0-60 26.9-60 60v138z" fill="" p-id="5409"></path><path d="M882 252H145c-16.6 0-30 13.4-30 30s13.4 30 30 30h737c16.6 0 30-13.4 30-30s-13.4-30-30-30zM392.8 432.5h60v300h-60zM572.8 432.5h60v300h-60z" fill="" p-id="5410"></path></svg>