<?xml version="1.0" standalone="no"?><!DOCTYPE svg PUBLIC "-//W3C//DTD SVG 1.1//EN" "http://www.w3.org/Graphics/SVG/1.1/DTD/svg11.dtd"><svg t="1725336733065" class="icon" viewBox="0 0 1024 1024" version="1.1" xmlns="http://www.w3.org/2000/svg" p-id="4310" xmlns:xlink="http://www.w3.org/1999/xlink" width="200" height="200"><path d="M256 768h469.333333a170.666667 170.666667 0 1 0-11.562666-340.949333l-32.341334 2.133333-10.752-30.549333A213.418667 213.418667 0 0 0 256 469.333333l0.042667 4.48 0.682666 33.792-32.725333 8.405334A128.085333 128.085333 0 0 0 256 768z m725.333333-170.666667a256 256 0 0 1-256 256H256a213.333333 213.333333 0 0 1-84.266667-409.386666A298.666667 298.666667 0 0 1 739.413333 341.76 256 256 0 0 1 981.333333 597.333333z" fill="#2E2F30" p-id="4311"></path></svg>