<?xml version="1.0" standalone="no"?><!DOCTYPE svg PUBLIC "-//W3C//DTD SVG 1.1//EN" "http://www.w3.org/Graphics/SVG/1.1/DTD/svg11.dtd"><svg t="1726537274635" class="icon" viewBox="0 0 1024 1024" version="1.1" xmlns="http://www.w3.org/2000/svg" p-id="5342" xmlns:xlink="http://www.w3.org/1999/xlink" width="200" height="200"><path d="M136.533333 0h591.633067L955.733333 238.933333v716.8a68.266667 68.266667 0 0 1-68.266666 68.266667H136.533333a68.266667 68.266667 0 0 1-68.266666-68.266667V68.266667a68.266667 68.266667 0 0 1 68.266666-68.266667z" fill="#B2B2B2" p-id="5343"></path><path d="M728.1664 0L955.733333 238.933333h-193.4336a34.133333 34.133333 0 0 1-34.133333-34.133333V0z" fill="#D9D9D9" p-id="5344"></path><path d="M398.2336 810.530133a170.666667 170.666667 0 0 1 0-341.333333h-1.024a142.2336 142.2336 0 0 1 283.989333 14.267733 170.666667 170.666667 0 0 1-60.757333 326.894934v0.170666z" fill="#FFFFFF" p-id="5345"></path></svg>