<?xml version="1.0" standalone="no"?><!DOCTYPE svg PUBLIC "-//W3C//DTD SVG 1.1//EN" "http://www.w3.org/Graphics/SVG/1.1/DTD/svg11.dtd"><svg t="1725331199773" class="icon" viewBox="0 0 1024 1024" version="1.1" xmlns="http://www.w3.org/2000/svg" p-id="7900" xmlns:xlink="http://www.w3.org/1999/xlink" width="200" height="200"><path d="M775.2 282.6L628.1 135.4l-0.2-0.2c-1.1-1.1-2.3-2.1-3.7-3-0.6-0.4-1.3-0.7-2-1.1-0.8-0.4-1.6-0.9-2.4-1.3-0.8-0.3-1.7-0.5-2.5-0.8-0.7-0.2-1.5-0.5-2.2-0.7-1.6-0.3-3.1-0.5-4.7-0.5h-0.4c-1.6 0-3.1 0.2-4.7 0.5-0.8 0.2-1.5 0.4-2.2 0.7-0.8 0.2-1.7 0.4-2.5 0.8s-1.6 0.8-2.4 1.3c-0.7 0.4-1.3 0.6-2 1.1-1.3 0.9-2.5 1.9-3.7 3l-0.2 0.2-0.2 0.2c-1.1 1.1-2.1 2.3-3 3.7-0.4 0.7-0.7 1.4-1.1 2-0.4 0.8-0.9 1.5-1.2 2.3-0.4 0.9-0.6 1.7-0.8 2.6-0.2 0.7-0.5 1.4-0.6 2.1-0.3 1.6-0.5 3.3-0.5 5v717.4c0 14 11.3 25.3 25.3 25.3s25.3-11.3 25.3-25.3V214.4l104 104c4.9 4.9 11.4 7.4 17.9 7.4s13-2.5 17.9-7.4c9.8-9.9 9.8-25.9-0.1-35.8zM436 882.7c0.4-0.8 0.9-1.5 1.2-2.3 0.4-0.9 0.6-1.8 0.8-2.6 0.2-0.7 0.5-1.4 0.6-2.1 0.3-1.6 0.5-3.3 0.5-5V153.3c0-14-11.3-25.3-25.3-25.3s-25.3 11.3-25.3 25.3v656.3l-104-104c-9.9-9.9-25.9-9.9-35.8 0-9.9 9.9-9.9 25.9 0 35.8l147.2 147.2 0.2 0.2c1.1 1.1 2.3 2.1 3.7 3 0.6 0.4 1.3 0.7 2 1.1 0.8 0.4 1.5 0.9 2.4 1.3 0.8 0.3 1.7 0.5 2.6 0.8 0.7 0.2 1.4 0.5 2.2 0.6 1.6 0.3 3.3 0.5 5 0.5s3.3-0.2 5-0.5c0.7-0.1 1.4-0.4 2.2-0.6 0.9-0.3 1.7-0.5 2.6-0.8 0.8-0.3 1.6-0.8 2.4-1.3 0.7-0.4 1.3-0.7 2-1.1 1.3-0.9 2.5-1.9 3.7-3l0.2-0.2 0.2-0.2c1.1-1.1 2.1-2.3 3-3.7 0-0.6 0.3-1.3 0.7-2z" p-id="7901"></path></svg>