<?xml version="1.0" standalone="no"?><!DOCTYPE svg PUBLIC "-//W3C//DTD SVG 1.1//EN" "http://www.w3.org/Graphics/SVG/1.1/DTD/svg11.dtd"><svg t="1725331216686" class="icon" viewBox="0 0 1024 1024" version="1.1" xmlns="http://www.w3.org/2000/svg" p-id="8940" xmlns:xlink="http://www.w3.org/1999/xlink" width="200" height="200"><path d="M512.195896 255.695026C579.067548 255.695026 633.450852 310.07833 633.450852 376.927722 633.450852 443.799374 579.067548 498.204939 512.195896 498.204939 445.346504 498.204939 390.9632 443.799374 390.9632 376.927722 390.9632 310.07833 445.346504 255.695026 512.195896 255.695026M226.255026 745.389635C223.361113 763.599026 235.8272 780.717635 254.01433 783.589287 272.335026 786.4832 289.34233 774.017113 292.213983 755.829983 309.532939 646.239722 402.583374 566.701635 513.487026 566.701635 624.390678 566.701635 717.463374 646.239722 734.76007 755.829983 737.34233 772.258504 751.544765 783.989983 767.706157 783.989983 769.442504 783.989983 771.178852 783.878678 772.959722 783.589287 791.146852 780.717635 803.612939 763.599026 800.719026 745.389635 784.668939 643.746504 718.264765 562.249461 629.199026 523.893983 672.429635 489.411896 700.233461 436.408765 700.233461 376.927722 700.233461 273.258852 615.887026 188.912417 512.195896 188.912417 408.527026 188.912417 324.180591 273.258852 324.180591 376.927722 324.180591 436.809461 352.407374 490.124243 396.127722 524.58407 307.885635 563.228939 242.21607 644.369809 226.255026 745.389635ZM512 0C229.665391 0 0 229.665391 0 512 0 616.893217 31.610435 717.824 91.425391 803.884522 101.954783 819.044174 122.746435 822.784 137.906087 812.232348 153.043478 801.725217 156.783304 780.911304 146.253913 765.751652 94.252522 690.95513 66.782609 603.202783 66.782609 512 66.782609 266.50713 266.50713 66.782609 512 66.782609 757.49287 66.782609 957.217391 266.50713 957.217391 512 957.217391 757.49287 757.49287 957.217391 512 957.217391 420.797217 957.217391 333.04487 929.747478 258.248348 877.746087 243.044174 867.194435 222.252522 870.934261 211.767652 886.093913 201.238261 901.231304 204.978087 922.045217 220.115478 932.574609 306.176 992.389565 407.106783 1024 512 1024 794.334609 1024 1024 794.334609 1024 512 1024 229.665391 794.334609 0 512 0Z" fill="#323333" p-id="8941"></path></svg>